<svg xmlns="http://www.w3.org/2000/svg" width="14" height="14" viewBox="0 0 14 14" fill="none">
  <path d="M12.25 3.5H9.625V2.625C9.625 1.66 8.84 0.875 7.875 0.875H6.125C5.16 0.875 4.375 1.66 4.375 2.625V3.5H1.75C1.025 3.5 0.4375 4.0875 0.4375 4.8125V11.375C0.4375 12.1 1.025 12.6875 1.75 12.6875H12.25C12.975 12.6875 13.5625 12.1 13.5625 11.375V4.8125C13.5625 4.0875 12.975 3.5 12.25 3.5ZM6.125 2.1875H7.875C8.1175 2.1875 8.3125 2.3825 8.3125 2.625V3.5H5.6875V2.625C5.6875 2.3825 5.8825 2.1875 6.125 2.1875ZM12.25 11.375H1.75V8.3125H4.375V9.1875H9.625V8.3125H12.25V11.375ZM9.625 7H4.375V6.125H1.75V4.8125H12.25V6.125H9.625V7Z" fill="white"/>
</svg>
