<svg width="24" height="24" viewBox="0 0 24 24" fill="none" xmlns="http://www.w3.org/2000/svg">
<path fill-rule="evenodd" clip-rule="evenodd" d="M7 4C7 2.34315 8.34315 1 10 1H14C15.6569 1 17 2.34315 17 4V5H19C20.6569 5 22 6.34315 22 8V10.9513C21.9254 10.9956 21.8411 11.0446 21.7473 11.0973C21.2822 11.3589 20.5858 11.7136 19.6829 12.07C17.8768 12.7829 15.2518 13.5001 12 13.5001C8.41148 13.5001 5.80937 12.664 4.12229 11.8496C3.27687 11.4415 2.65772 11.037 2.25731 10.742C2.15812 10.6689 2.07239 10.6025 2 10.5445V8C2 6.34315 3.34315 5 5 5H7V4ZM20.4172 13.9303C21.029 13.6888 21.5585 13.4466 22 13.226V18C22 19.6569 20.6569 21 19 21H5C3.34315 21 2 19.6569 2 18V12.9721C2.35949 13.1902 2.77677 13.4209 3.2528 13.6507C5.19073 14.5862 8.08861 15.5001 12 15.5001C15.5483 15.5001 18.4233 14.7174 20.4172 13.9303ZM15 4V5H9V4C9 3.44772 9.44772 3 10 3H14C14.5523 3 15 3.44772 15 4ZM11 9C10.4477 9 10 9.44771 10 10C10 10.5523 10.4477 11 11 11H13C13.5523 11 14 10.5523 14 10C14 9.44771 13.5523 9 13 9H11Z" fill="#0D0D0F"/>
</svg>
