<svg width="1000" height="85" viewBox="0 0 1000 85" fill="none" xmlns="http://www.w3.org/2000/svg">
<g clip-path="url(#clip0_354_90868)">
<path d="M189.717 9.2749H229.98V70.3721H219.343V17.5384H200.354V70.3721H189.717V9.2749Z" fill="black"/>
<path d="M244.363 83.9981C242.312 83.9981 240.847 83.7344 239.968 83.2069C239.089 82.738 238.649 82.5036 238.649 82.5036V73.9764C239.821 75.1485 241.404 75.7346 243.396 75.7346C244.862 75.7346 246.034 75.4122 246.913 74.7676C247.792 74.1815 248.524 73.361 249.111 72.3061L233.902 26.1536H244.891L254.649 59.3834L264.407 26.1536H274.516L260.715 67.9985C259.718 70.9875 258.575 73.6834 257.286 76.0862C255.997 78.5477 254.327 80.4817 252.275 81.8882C250.283 83.2948 247.645 83.9981 244.363 83.9981Z" fill="black"/>
<path d="M311.783 34.4171H299.475V70.3721H289.014V34.4171H276.707V26.1536H311.783V34.4171Z" fill="black"/>
<path d="M349.16 67.3832C347.636 68.4381 345.644 69.3465 343.182 70.1084C340.721 70.8702 337.82 71.2512 334.479 71.2512C327.798 71.2512 322.641 69.3758 319.007 65.625C315.373 61.8156 313.557 56.0721 313.557 48.3947C313.557 43.9406 314.231 39.9847 315.578 36.5269C316.985 33.0105 319.066 30.256 321.82 28.2634C324.633 26.2708 328.15 25.2745 332.369 25.2745C335.886 25.2745 338.933 25.9777 341.512 27.3843C344.09 28.7908 346.083 31.0472 347.49 34.1533C348.896 37.2009 349.599 41.3033 349.599 46.4607V51.999H324.369C324.604 55.6912 325.542 58.4457 327.183 60.2625C328.823 62.0793 331.549 62.9877 335.358 62.9877C337.937 62.9877 340.457 62.5774 342.918 61.7569C345.438 60.9365 347.519 59.9695 349.16 58.8559V67.3832ZM332.193 33.538C327.27 33.538 324.662 37.113 324.369 44.2629H338.962V43.3838C338.962 40.6293 338.464 38.3144 337.468 36.439C336.53 34.505 334.772 33.538 332.193 33.538Z" fill="black"/>
<path d="M356.608 70.3721V26.1536H367.069V62.1086H378.498V26.1536H388.959V62.1086H400.387V26.1536H410.848V70.3721H356.608Z" fill="black"/>
<path d="M453.467 67.3832C451.943 68.4381 449.95 69.3465 447.489 70.1084C445.027 70.8702 442.126 71.2512 438.786 71.2512C432.105 71.2512 426.947 69.3758 423.314 65.625C419.68 61.8156 417.863 56.0721 417.863 48.3947C417.863 43.9406 418.537 39.9847 419.885 36.5269C421.292 33.0105 423.372 30.256 426.127 28.2634C428.94 26.2708 432.456 25.2745 436.676 25.2745C440.192 25.2745 443.24 25.9777 445.819 27.3843C448.397 28.7908 450.39 31.0472 451.796 34.1533C453.203 37.2009 453.906 41.3033 453.906 46.4607V51.999H428.676C428.911 55.6912 429.848 58.4457 431.489 60.2625C433.13 62.0793 435.856 62.9877 439.665 62.9877C442.244 62.9877 444.764 62.5774 447.225 61.7569C449.745 60.9365 451.826 59.9695 453.467 58.8559V67.3832ZM436.5 33.538C431.577 33.538 428.969 37.113 428.676 44.2629H443.269V43.3838C443.269 40.6293 442.771 38.3144 441.775 36.439C440.837 34.505 439.079 33.538 436.5 33.538Z" fill="black"/>
<path d="M479.904 71.2512C472.929 71.2512 467.713 69.2879 464.256 65.3612C460.856 61.376 459.157 55.6912 459.157 48.3068C459.157 43.7941 459.919 39.8088 461.443 36.3511C462.966 32.8933 465.223 30.1974 468.212 28.2634C471.259 26.2708 475.01 25.2745 479.464 25.2745C482.043 25.2745 484.27 25.4796 486.145 25.8898C488.079 26.2415 489.603 26.7396 490.716 27.3843V36.2632C489.661 35.6185 488.226 35.0031 486.409 34.4171C484.592 33.831 482.658 33.538 480.607 33.538C477.208 33.538 474.57 34.7687 472.695 37.2302C470.878 39.633 469.97 43.2373 469.97 48.043C469.97 52.6143 470.79 56.2479 472.431 58.9438C474.072 61.6397 476.768 62.9877 480.519 62.9877C482.746 62.9877 484.68 62.724 486.321 62.1965C487.962 61.669 489.427 60.9365 490.716 59.9988V68.526C488.196 70.3428 484.592 71.2512 479.904 71.2512Z" fill="black"/>
<path d="M529.754 34.4171H517.446V70.3721H506.985V34.4171H494.678V26.1536H529.754V34.4171Z" fill="black"/>
<path d="M554.232 70.3721H535.947V26.1536H554.408C564.196 26.1536 569.089 29.9044 569.089 37.406C569.089 40.0433 568.386 42.1824 566.979 43.8234C565.573 45.4644 563.697 46.6365 561.353 47.3398C564.283 47.8672 566.569 48.9808 568.21 50.6803C569.91 52.3213 570.759 54.607 570.759 57.5373C570.759 61.7569 569.294 64.951 566.364 67.1194C563.492 69.2879 559.448 70.3721 554.232 70.3721ZM553.178 33.8896H546.145V43.9113H552.826C554.818 43.9113 556.342 43.4717 557.397 42.5926C558.511 41.7136 559.068 40.5121 559.068 38.9884C559.068 35.5892 557.104 33.8896 553.178 33.8896ZM553.353 51.5594H546.145V62.636H553.353C555.463 62.636 557.133 62.1965 558.364 61.3174C559.595 60.3797 560.21 58.8852 560.21 56.834C560.21 53.3176 557.925 51.5594 553.353 51.5594Z" fill="black"/>
<path d="M577.756 26.1536H587.865V53.4934L603.865 26.1536H613.183V70.3721H603.074V43.0322L587.074 70.3721H577.756V26.1536Z" fill="black"/>
<path d="M618.891 70.3721L628.825 53.6693C626.012 52.7316 623.844 51.2078 622.32 49.098C620.796 46.9295 620.034 44.175 620.034 40.8345C620.034 36.0873 621.675 32.4537 624.957 29.9337C628.239 27.4136 632.429 26.1536 637.528 26.1536H653.528V70.3721H643.067V55.9549H638.056L629.616 70.3721H618.891ZM638.319 34.4171C636.034 34.4171 634.188 34.9445 632.781 35.9994C631.375 37.0543 630.671 38.7832 630.671 41.1861C630.671 43.7062 631.316 45.523 632.605 46.6365C633.895 47.75 635.711 48.3068 638.056 48.3068H643.067V34.4171H638.319Z" fill="black"/>
<path d="M81.6286 40.605C81.6286 18.2422 63.4852 0.0566406 41.0802 0.0566406C18.6752 0.0566406 0.616211 18.1578 0.616211 40.605C0.616211 62.9256 18.7174 81.069 41.0802 81.069C63.443 81.069 81.6286 62.9256 81.6286 40.605ZM41.0802 74.1914C22.768 74.1914 8.00015 59.3813 8.00015 40.5628C8.00015 21.7865 22.768 6.93425 41.0802 6.93425C59.5189 6.93425 74.1602 21.8287 74.1602 40.5628C74.2446 59.4235 59.5189 74.1914 41.0802 74.1914Z" fill="black"/>
<path d="M46.4021 24.0066H42.7012C36.3569 24.0066 33.1847 27.1787 33.1847 31.937C33.1847 37.2239 35.2995 39.8674 40.0577 43.0396L43.7586 45.6831L33.1847 62.0726H24.7256L34.7708 47.2691C28.9551 43.0396 25.783 39.3387 25.783 32.4657C25.783 24.0066 31.5986 18.1909 42.7012 18.1909H53.8038V62.0726H46.4021V24.0066Z" fill="black"/>
<path fill-rule="evenodd" clip-rule="evenodd" d="M149.515 55.3091C148.296 54.9948 146.885 58.1428 146.479 59.3312C146.113 60.428 145.392 63.5558 146.479 63.9511C147.799 64.4274 149.647 60.9756 150.044 59.635C150.349 58.5883 150.571 55.5829 149.517 55.3188L149.515 55.3083V55.3091ZM165.406 28.6888C166.554 32.4403 167.171 36.4235 167.171 40.5517H167.173C167.173 62.9166 149.044 81.0561 126.669 81.0561C114.431 81.0561 103.463 75.6293 96.0363 67.0529C94.3618 63.4351 95.2084 60.5892 95.9674 58.0342C96.528 56.1483 97.0416 54.4204 96.4599 52.6585C95.9115 51.0002 94.1893 50.421 92.2953 49.7835C89.9801 49.0042 87.4097 48.139 86.4181 45.1125C86.2504 43.6155 86.1646 42.0941 86.1646 40.5525C86.1646 18.1868 104.304 0.0473633 126.669 0.0473633C136.512 0.0473633 145.537 3.55909 152.557 9.39982C145.075 5.86622 136.213 3.8969 127.793 5.67423C124.619 6.34498 124.07 7.67434 123.468 9.13006C123.256 9.64285 123.038 10.171 122.696 10.6919C121.66 12.27 119.462 13.3198 117.687 14.1664C116.344 14.8072 115.244 15.3321 115.075 15.8821C114.517 17.7194 117.182 20.869 118.705 21.4369C120.039 21.9286 121.28 20.9557 122.629 19.8994C123.734 19.0334 124.911 18.1115 126.27 17.892C129.266 17.4051 140.409 18.4234 142.266 21.3762C145.03 24.4529 144.714 29.43 143.059 30.1219C142.19 30.4848 140.764 29.6852 139.204 28.8111C137.576 27.8982 135.802 26.9042 134.365 27.0654C133.709 27.1407 132.796 27.5336 131.82 27.9524C130.44 28.5454 128.936 29.1919 127.865 29.0671C126.951 28.961 126.222 27.7831 125.502 26.6207C124.983 25.7814 124.469 24.9503 123.894 24.5379C122.644 23.6436 115.576 25.1868 113.757 26.0107C111.542 27.0063 106.516 34.1253 106.383 36.6852C106.221 39.6606 112.283 45.6642 114.731 46.1405C115.92 46.3706 117.533 45.9923 119.082 45.6285C120.881 45.2065 122.593 44.8047 123.456 45.3985C124.195 45.9105 124.96 49.5656 125.862 53.8704C127.303 60.7496 129.092 69.2871 131.672 69.3058C134.333 69.326 141.604 59.3944 142.742 57.4631C143.742 55.7554 143.731 53.4127 143.721 51.5349C143.716 50.4194 143.712 49.4684 143.92 48.9126C144.236 48.0685 145.311 47.1045 146.411 46.1178C147.746 44.9205 149.116 43.6908 149.211 42.6045C149.285 41.8017 148.109 40.3184 146.936 38.836C145.512 37.0376 144.088 35.2416 144.895 34.6624C145.414 34.2922 146.937 34.6786 148.651 35.1128C150.799 35.6572 153.245 36.2777 154.381 35.577C155.297 35.0123 155.749 33.2488 156.297 31.1142C156.792 29.1862 157.364 26.9552 158.425 25.0288C158.849 24.2584 159.658 23.7691 160.539 23.7691C162.049 23.7691 163.673 24.4909 165.407 28.6888H165.406Z" fill="black"/>
<path d="M682.313 26.8298C680.697 17.645 687.763 9.22657 697.089 9.22657L971.361 9.22656C982.285 9.22656 991.632 17.0717 993.525 27.8304L999.695 62.8871C1001.31 72.0719 994.245 80.4903 984.919 80.4903L710.646 80.4903C699.722 80.4903 690.376 72.6452 688.483 61.8865L682.313 26.8298Z" fill="#7F5FFF"/>
<path d="M967.761 56.7444C967.416 55.7721 967.196 54.5174 967.102 52.9805C966.851 53.4824 966.506 53.9842 966.067 54.4861C965.659 54.9879 965.142 55.4427 964.515 55.8505C963.919 56.2582 963.197 56.5876 962.35 56.8385C961.535 57.0894 960.563 57.2149 959.433 57.2149C958.367 57.2149 957.379 57.0737 956.469 56.7914C955.591 56.5405 954.823 56.1484 954.164 55.6152C953.505 55.0507 952.988 54.3449 952.611 53.4981C952.235 52.6512 952.047 51.6632 952.047 50.534C952.047 48.0562 953.051 46.1586 955.058 44.8412C957.097 43.5239 960.343 42.8652 964.797 42.8652H966.914V40.9833C966.914 39.4464 966.522 38.3172 965.738 37.5958C964.954 36.8431 963.574 36.4667 961.598 36.4667C959.998 36.4667 958.492 36.7019 957.081 37.1724C955.701 37.6429 954.54 38.2388 953.599 38.9602V35.1023C954.321 34.3809 955.45 33.7693 956.987 33.2674C958.524 32.7656 960.312 32.5146 962.35 32.5146C965.581 32.5146 968.059 33.1576 969.784 34.4436C971.54 35.6982 972.419 37.737 972.419 40.5599V52.9335C972.419 53.4667 972.434 54.1411 972.466 54.9566C972.528 55.7407 972.607 56.3366 972.701 56.7444H967.761ZM961.221 53.6392C962.131 53.6392 962.931 53.4824 963.621 53.1687C964.342 52.8551 964.938 52.4473 965.409 51.9455C965.91 51.4436 966.287 50.8947 966.538 50.2988C966.789 49.6715 966.914 49.0442 966.914 48.4169V45.7351H965.032C963.589 45.7351 962.382 45.8292 961.409 46.0174C960.437 46.1743 959.653 46.4252 959.057 46.7702C958.492 47.1152 958.085 47.5543 957.834 48.0875C957.614 48.6208 957.504 49.2481 957.504 49.9695C957.504 51.2554 957.834 52.1964 958.492 52.7923C959.182 53.3569 960.092 53.6392 961.221 53.6392Z" fill="white"/>
<path d="M941.657 57.2149C939.743 57.2149 938.018 56.9483 936.481 56.415C934.976 55.8505 933.674 55.035 932.576 53.9685C931.51 52.9021 930.679 51.6005 930.083 50.0636C929.518 48.5267 929.236 46.7859 929.236 44.8412C929.236 42.8966 929.518 41.1715 930.083 39.6659C930.679 38.129 931.526 36.8274 932.623 35.761C933.721 34.6945 935.038 33.8947 936.575 33.3615C938.112 32.7969 939.853 32.5146 941.798 32.5146C943.429 32.5146 944.856 32.7028 946.079 33.0792C947.334 33.4556 948.337 33.9418 949.09 34.5377V38.3486C947.145 37.094 944.871 36.4667 942.268 36.4667C937.344 36.4667 934.882 39.2582 934.882 44.8412C934.882 50.4556 937.297 53.2628 942.127 53.2628C943.538 53.2628 944.809 53.0903 945.938 52.7453C947.098 52.4003 948.149 51.9298 949.09 51.3339V55.1447C948.306 55.7721 947.302 56.2739 946.079 56.6503C944.856 57.0267 943.382 57.2149 941.657 57.2149Z" fill="white"/>
<path d="M925.224 54.7213C924.565 55.2545 923.53 55.8034 922.119 56.368C920.739 56.9326 918.967 57.2149 916.802 57.2149C912.505 57.2149 909.275 56.1171 907.111 53.9215C904.946 51.6946 903.864 48.6678 903.864 44.8412C903.864 42.9279 904.147 41.2185 904.711 39.713C905.307 38.1761 906.123 36.8744 907.158 35.808C908.193 34.7416 909.416 33.9261 910.827 33.3615C912.27 32.7969 913.854 32.5146 915.579 32.5146C917.367 32.5146 918.967 32.8126 920.378 33.4086C921.79 33.9731 922.95 34.8357 923.86 35.9962C924.769 37.1567 925.397 38.5838 925.742 40.2776C926.087 41.9713 926.087 43.9473 925.742 46.2056H909.416C909.635 48.5894 910.373 50.3615 911.627 51.522C912.913 52.6826 914.842 53.2628 917.414 53.2628C919.202 53.2628 920.723 53.0276 921.978 52.5571C923.264 52.0553 924.346 51.522 925.224 50.9575V54.7213ZM915.532 35.9962C913.87 35.9962 912.49 36.5765 911.392 37.737C910.326 38.8975 909.683 40.6383 909.463 42.9593H920.707C920.833 40.5755 920.409 38.8191 919.437 37.6899C918.465 36.5608 917.163 35.9962 915.532 35.9962Z" fill="white"/>
<path d="M893.857 46.347H883.695V56.7446H878.19V32.9854H883.695V42.7713H893.857V32.9854H899.315V56.7446H893.857V46.347Z" fill="white"/>
<path d="M873.209 49.9695C873.209 51.2241 872.927 52.3062 872.362 53.2158C871.829 54.1254 871.076 54.8781 870.104 55.4741C869.132 56.07 868.003 56.5091 866.717 56.7914C865.431 57.0737 864.051 57.2149 862.576 57.2149C860.663 57.2149 859.001 57.011 857.589 56.6032C856.209 56.1955 855.19 55.725 854.531 55.1918V51.2868C855.441 51.9141 856.554 52.4316 857.872 52.8394C859.189 53.2471 860.632 53.451 862.2 53.451C863.862 53.451 865.195 53.1687 866.199 52.6042C867.203 52.0082 867.705 51.0202 867.705 49.6401C867.705 48.5423 867.266 47.7268 866.387 47.1936C865.54 46.6604 864.16 46.3938 862.247 46.3938H859.001V42.8182H862.294C863.862 42.8182 865.039 42.5516 865.823 42.0183C866.607 41.4851 866.999 40.7167 866.999 39.713C866.999 38.4897 866.528 37.6115 865.588 37.0783C864.678 36.5451 863.517 36.2785 862.106 36.2785C860.6 36.2785 859.252 36.4824 858.06 36.8901C856.868 37.2979 855.817 37.7997 854.908 38.3957V34.4907C855.692 33.9575 856.743 33.5027 858.06 33.1263C859.377 32.7185 861.008 32.5146 862.953 32.5146C865.995 32.5146 868.301 33.0635 869.869 34.1613C871.469 35.2591 872.268 36.8117 872.268 38.8191C872.268 40.4187 871.798 41.6576 870.857 42.5359C869.916 43.4141 868.599 44.0257 866.905 44.3708C868.975 44.6217 870.543 45.2019 871.61 46.1115C872.676 46.9898 873.209 48.2757 873.209 49.9695Z" fill="white"/>
<path d="M833.122 50.0167L844.931 32.9854H849.872V56.7446H844.461V39.6662L832.699 56.7446H827.712V32.9854H833.122V50.0167Z" fill="white"/>
<path d="M823.185 44.9821C823.185 46.9268 822.871 48.6676 822.244 50.2045C821.648 51.71 820.817 52.9803 819.75 54.0154C818.684 55.0504 817.414 55.8502 815.94 56.4148C814.497 56.948 812.928 57.2146 811.235 57.2146C809.478 57.2146 807.863 56.9323 806.389 56.3678C804.915 55.7718 803.644 54.8779 802.578 53.686C801.511 52.4628 800.68 50.9416 800.084 49.1224C799.488 47.3032 799.19 45.139 799.19 42.6297C799.19 40.7792 799.253 39.007 799.379 37.3133C799.535 35.5882 799.833 33.9886 800.273 32.5144C800.712 31.0402 801.323 29.7072 802.107 28.5153C802.892 27.3234 803.927 26.3041 805.213 25.4572C806.749 24.4535 808.38 23.7948 810.106 23.4812C811.862 23.1362 813.666 22.9323 815.516 22.8696C817.084 22.7755 818.308 22.6343 819.186 22.4461C820.095 22.2579 820.88 22.007 821.538 21.6934V26.1159C820.88 26.5236 820.095 26.8216 819.186 27.0098C818.308 27.1666 817.241 27.2921 815.987 27.3862C814.199 27.5116 812.615 27.6685 811.235 27.8567C809.886 28.0448 808.647 28.4526 807.518 29.0799C806.138 29.8954 805.166 31.1814 804.601 32.9378C804.068 34.6943 803.723 36.7644 803.566 39.1482C804.287 37.0781 805.385 35.5255 806.859 34.4904C808.365 33.4554 810.2 32.9378 812.364 32.9378C813.995 32.9378 815.469 33.2201 816.786 33.7847C818.135 34.3493 819.28 35.1491 820.221 36.1842C821.162 37.2192 821.883 38.4895 822.385 39.995C822.918 41.4692 823.185 43.1316 823.185 44.9821ZM811.141 53.4978C812.991 53.4978 814.512 52.8235 815.704 51.4748C816.896 50.0947 817.492 47.9618 817.492 45.0762C817.492 42.222 816.896 40.1205 815.704 38.7718C814.544 37.3917 813.07 36.7017 811.282 36.7017C809.494 36.7017 807.973 37.3917 806.718 38.7718C805.495 40.1205 804.883 42.2063 804.883 45.0292C804.883 47.9462 805.463 50.0947 806.624 51.4748C807.816 52.8235 809.321 53.4978 811.141 53.4978Z" fill="white"/>
<path d="M766.159 40.8424C766.159 39.525 766.394 38.3802 766.864 37.4079C767.366 36.4042 768.056 35.5887 768.934 34.9614C769.844 34.3027 770.926 33.8165 772.181 33.5029C773.467 33.1579 774.878 32.9854 776.415 32.9854H785.307V56.7446H779.85V48.5112H776.133L770.393 56.7446H764.465L771.287 47.2879C769.624 46.7861 768.354 46.0177 767.476 44.9826C766.598 43.9475 766.159 42.5675 766.159 40.8424ZM779.85 45.1237V36.4199H776.838C775.333 36.4199 774.094 36.7649 773.122 37.4549C772.181 38.1136 771.71 39.1957 771.71 40.7012C771.71 42.2068 772.134 43.3202 772.981 44.0416C773.859 44.763 775.082 45.1237 776.65 45.1237H779.85Z" fill="white"/>
<path d="M742.731 48.323C743.076 46.8175 743.311 44.8258 743.437 42.3479C743.562 39.8387 743.625 36.7178 743.625 32.9854H760.704V56.7446H755.199V36.608H748.048C747.985 39.5564 747.875 42.1911 747.718 44.5121C747.593 46.8332 747.311 48.8405 746.871 50.5343C746.244 52.8553 745.303 54.549 744.049 55.6155C742.794 56.6505 741.006 57.0426 738.685 56.7917V52.4162C739.751 52.573 740.598 52.3221 741.226 51.6634C741.884 51.0047 742.386 49.8913 742.731 48.323Z" fill="white"/>
<path d="M713.833 50.3461C714.461 48.6837 714.868 46.4254 715.056 43.5712C715.245 40.7169 715.386 37.1883 715.48 32.9854H733.123V53.1219H736.699V64.2252H732.652L731.711 56.7446H714.774L713.833 64.2252H709.787V53.1219H711.998C712.751 52.526 713.363 51.6007 713.833 50.3461ZM718.162 51.3341C718.005 51.6791 717.848 52.0084 717.691 52.3221C717.566 52.6044 717.425 52.871 717.268 53.1219H727.618V36.608H719.902C719.808 40.121 719.636 43.0693 719.385 45.4531C719.165 47.8368 718.758 49.7972 718.162 51.3341Z" fill="white"/>
</g>
<defs>
<clipPath id="clip0_354_90868">
<rect width="1000" height="84.0233" fill="white"/>
</clipPath>
</defs>
</svg>
