<svg xmlns="http://www.w3.org/2000/svg" width="1000" height="85" fill="none" viewBox="0 0 1000 85"><g clip-path="url(#a)"><path fill="#fff" d="M189.717 9.275h40.263v61.097h-10.637V17.538h-18.989v52.834h-10.637zM244.363 83.998q-3.076 0-4.395-.791l-1.319-.703v-8.528q1.758 1.758 4.747 1.759 2.199 0 3.517-.967 1.318-.88 2.198-2.462l-15.209-46.152h10.989l9.758 33.23 9.758-33.23h10.109l-13.801 41.845q-1.496 4.483-3.429 8.087-1.933 3.693-5.011 5.802-2.988 2.11-7.912 2.11M311.783 34.417h-12.308v35.955h-10.461V34.417h-12.307v-8.263h35.076zM349.16 67.383q-2.286 1.583-5.978 2.725t-8.703 1.143q-10.021 0-15.472-5.626-5.45-5.715-5.45-17.23 0-6.681 2.021-11.868 2.11-5.275 6.242-8.264 4.22-2.989 10.549-2.989 5.275 0 9.143 2.11 3.867 2.11 5.978 6.77 2.109 4.571 2.109 12.307v5.538h-25.23q.352 5.538 2.814 8.264 2.46 2.724 8.175 2.725 3.868 0 7.56-1.231 3.78-1.23 6.242-2.901zm-16.967-33.845q-7.385 0-7.824 10.725h14.593v-.88q0-4.131-1.494-6.944-1.407-2.901-5.275-2.901M356.608 70.372V26.154h10.461v35.955h11.429V26.154h10.461v35.955h11.428V26.154h10.461v44.218zM453.467 67.383q-2.286 1.583-5.978 2.725-3.693 1.143-8.703 1.143-10.022 0-15.472-5.626-5.451-5.715-5.451-17.23 0-6.681 2.022-11.868 2.11-5.275 6.242-8.264 4.22-2.989 10.549-2.989 5.274 0 9.143 2.11 3.868 2.11 5.977 6.77 2.11 4.571 2.11 12.307v5.538h-25.23q.352 5.538 2.813 8.264 2.462 2.724 8.176 2.725 3.868 0 7.56-1.231 3.78-1.23 6.242-2.901zM436.5 33.538q-7.385 0-7.824 10.725h14.593v-.88q0-4.131-1.494-6.944-1.407-2.901-5.275-2.901M479.904 71.251q-10.462 0-15.648-5.89-5.1-5.978-5.099-17.054 0-6.77 2.286-11.956 2.285-5.187 6.769-8.088 4.57-2.989 11.252-2.989 3.868 0 6.681.616 2.901.527 4.571 1.494v8.88q-1.582-.968-4.307-1.847t-5.802-.879q-5.099 0-7.912 3.692-2.725 3.604-2.725 10.813 0 6.857 2.461 10.9 2.461 4.045 8.088 4.045 3.34 0 5.802-.791t4.395-2.198v8.527q-3.78 2.725-10.812 2.725M529.754 34.417h-12.308v35.955h-10.461V34.417h-12.307v-8.263h35.076zM554.232 70.372h-18.285V26.154h18.461q14.682 0 14.681 11.252 0 3.956-2.11 6.417t-5.626 3.517q4.395.79 6.857 3.34 2.55 2.462 2.549 6.857 0 6.33-4.395 9.582-4.308 3.253-12.132 3.253m-1.054-36.482h-7.033V43.91h6.681q2.988 0 4.571-1.318 1.671-1.319 1.671-3.605 0-5.098-5.89-5.098m.175 17.67h-7.208v11.076h7.208q3.165 0 5.011-1.319 1.846-1.406 1.846-4.483 0-5.274-6.857-5.275M577.756 26.154h10.109v27.34l16-27.34h9.318v44.218h-10.109v-27.34l-16 27.34h-9.318zM618.891 70.372l9.934-16.703q-4.22-1.406-6.505-4.571-2.286-3.253-2.286-8.263 0-7.121 4.923-10.901t12.571-3.78h16v44.218h-10.461V55.955h-5.011l-8.44 14.417zm19.428-35.955q-3.428 0-5.538 1.582t-2.11 5.187q0 3.78 1.934 5.45t5.451 1.67h5.011V34.418zM81.629 40.605C81.629 18.242 63.485.057 41.08.057 18.676.057.616 18.157.616 40.605c0 22.32 18.102 40.464 40.464 40.464 22.363 0 40.549-18.143 40.549-40.464M41.08 74.191C22.768 74.191 8 59.381 8 40.563 8 21.786 22.768 6.934 41.08 6.934c18.44 0 33.08 14.895 33.08 33.629.085 18.86-14.64 33.628-33.08 33.628"/><path fill="#fff" d="M46.402 24.007h-3.7c-6.345 0-9.517 3.172-9.517 7.93 0 5.287 2.115 7.93 6.873 11.103l3.7 2.643-10.573 16.39h-8.46l10.046-14.804c-5.816-4.23-8.988-7.93-8.988-14.803 0-8.46 5.816-14.275 16.919-14.275h11.102v43.882h-7.402z"/><path fill="#fff" fill-rule="evenodd" d="M149.515 55.31c-1.219-.315-2.63 2.833-3.036 4.021-.366 1.097-1.087 4.225 0 4.62 1.32.476 3.168-2.975 3.565-4.316.305-1.047.527-4.052-.527-4.316l-.002-.01m15.891-26.621a40.5 40.5 0 0 1 1.765 11.863h.002c0 22.365-18.129 40.504-40.504 40.504-12.238 0-23.206-5.427-30.633-14.003-1.674-3.618-.828-6.464-.069-9.019.561-1.886 1.075-3.614.493-5.376-.548-1.658-2.27-2.237-4.165-2.875-2.315-.779-4.885-1.644-5.877-4.67a41 41 0 0 1-.253-4.56c0-22.366 18.139-40.506 40.504-40.506A40.34 40.34 0 0 1 152.557 9.4c-7.482-3.534-16.344-5.503-24.764-3.726-3.174.671-3.723 2-4.325 3.456-.212.513-.43 1.041-.772 1.562-1.036 1.578-3.234 2.628-5.009 3.474-1.343.641-2.443 1.166-2.612 1.716-.558 1.837 2.107 4.987 3.63 5.555 1.334.492 2.575-.481 3.924-1.538 1.105-.866 2.282-1.788 3.641-2.007 2.996-.487 14.139.531 15.996 3.484 2.764 3.077 2.448 8.054.793 8.746-.869.363-2.295-.437-3.855-1.31-1.628-.914-3.402-1.908-4.839-1.747-.656.076-1.569.469-2.545.887-1.38.593-2.884 1.24-3.955 1.115-.914-.106-1.643-1.284-2.363-2.446-.519-.84-1.033-1.67-1.608-2.083-1.25-.894-8.318.649-10.137 1.473-2.215.995-7.241 8.114-7.374 10.674-.162 2.976 5.9 8.98 8.348 9.456 1.189.23 2.802-.149 4.351-.512 1.799-.422 3.511-.824 4.374-.23.739.511 1.504 4.167 2.406 8.471 1.441 6.88 3.23 15.417 5.81 15.436 2.661.02 9.932-9.912 11.07-11.843 1-1.708.989-4.05.979-5.928-.005-1.116-.009-2.067.199-2.622.316-.844 1.391-1.808 2.491-2.795 1.335-1.198 2.705-2.427 2.8-3.514.074-.802-1.102-2.286-2.275-3.768-1.424-1.798-2.848-3.594-2.041-4.174.519-.37 2.042.017 3.756.45 2.148.545 4.594 1.166 5.73.465.916-.565 1.368-2.328 1.916-4.463.495-1.928 1.067-4.159 2.128-6.085a2.42 2.42 0 0 1 2.114-1.26c1.51 0 3.134.722 4.868 4.92z" clip-rule="evenodd"/><path fill="#7f5fff" d="M682.313 26.83c-1.616-9.185 5.45-17.603 14.776-17.603h274.272c10.924 0 20.271 7.845 22.164 18.603l6.17 35.057c1.615 9.185-5.45 17.603-14.776 17.603H710.646c-10.924 0-20.27-7.845-22.163-18.603z"/><path fill="#fff" d="M967.761 56.744q-.518-1.458-.659-3.764a7.2 7.2 0 0 1-1.035 1.506 6.7 6.7 0 0 1-1.552 1.364q-.894.612-2.165.989-1.222.375-2.917.376-1.599 0-2.964-.424a6.4 6.4 0 0 1-2.305-1.176 5.9 5.9 0 0 1-1.553-2.117q-.564-1.27-.564-2.964 0-3.716 3.011-5.693 3.058-1.976 9.739-1.976h2.117v-1.882q0-2.305-1.176-3.387-1.176-1.13-4.14-1.13-2.4 0-4.517.706-2.07.706-3.482 1.788v-3.858q1.083-1.082 3.388-1.835 2.306-.752 5.363-.752 4.846 0 7.434 1.929 2.635 1.881 2.635 6.116v12.374q0 .8.047 2.023.093 1.176.235 1.787zm-6.54-3.105q1.365 0 2.4-.47 1.081-.471 1.788-1.223a5.2 5.2 0 0 0 1.129-1.647 5 5 0 0 0 .376-1.882v-2.682h-1.882q-2.164 0-3.623.282-1.458.236-2.352.753-.847.517-1.223 1.317-.33.8-.33 1.882 0 1.929.988 2.823 1.035.847 2.729.847M941.657 57.215q-2.87 0-5.176-.8-2.258-.847-3.905-2.447-1.599-1.6-2.493-3.904-.847-2.305-.847-5.223t.847-5.175q.894-2.306 2.54-3.905 1.647-1.6 3.952-2.4 2.306-.846 5.223-.846 2.447 0 4.281.564 1.882.565 3.011 1.459v3.81q-2.918-1.881-6.822-1.881-7.386 0-7.386 8.374 0 8.422 7.245 8.422 2.117 0 3.811-.518a12.5 12.5 0 0 0 3.152-1.411v3.81q-1.176.942-3.011 1.506-1.834.565-4.422.565M925.224 54.721q-.989.8-3.105 1.647-2.07.847-5.317.847-6.445 0-9.691-3.294-3.247-3.34-3.247-9.08 0-2.87.847-5.128.894-2.306 2.447-3.905a10.5 10.5 0 0 1 3.669-2.447q2.164-.846 4.752-.846 2.682 0 4.799.894 2.118.846 3.482 2.587 1.364 1.74 1.882 4.282.518 2.54 0 5.928h-16.326q.33 3.575 2.211 5.316 1.929 1.74 5.787 1.74 2.682 0 4.564-.705 1.929-.753 3.246-1.6zm-9.692-18.725q-2.493 0-4.14 1.741-1.599 1.74-1.929 5.222h11.244q.188-3.576-1.27-5.27t-3.905-1.693M893.857 46.347h-10.162v10.398h-5.505v-23.76h5.505v9.786h10.162v-9.786h5.458v23.76h-5.458zM873.209 49.97q0 1.881-.847 3.246-.8 1.364-2.258 2.258t-3.387 1.317a19.3 19.3 0 0 1-4.141.424q-2.87 0-4.987-.612-2.07-.611-3.058-1.411v-3.905q1.365.941 3.341 1.552t4.328.612q2.493 0 3.999-.847 1.506-.894 1.506-2.964 0-1.647-1.318-2.446-1.27-.8-4.14-.8h-3.246v-3.576h3.293q2.353 0 3.529-.8t1.176-2.305q0-1.835-1.411-2.635-1.365-.8-3.482-.8-2.258 0-4.046.612t-3.152 1.506V34.49q1.176-.8 3.152-1.365 1.976-.61 4.893-.611 4.563 0 6.916 1.646 2.4 1.647 2.399 4.658 0 2.4-1.411 3.717t-3.952 1.835q3.105.375 4.705 1.74 1.599 1.318 1.599 3.858M833.122 50.017l11.809-17.032h4.941v23.76h-5.411V39.666l-11.762 17.079h-4.987v-23.76h5.41zM823.185 44.982q0 2.918-.941 5.223-.894 2.258-2.494 3.81-1.599 1.552-3.81 2.4-2.165.8-4.705.8-2.635 0-4.846-.847a10.16 10.16 0 0 1-3.811-2.682q-1.6-1.834-2.494-4.564t-.894-6.492q0-2.775.189-5.317.234-2.587.894-4.799.658-2.211 1.834-3.999 1.177-1.787 3.106-3.058 2.304-1.505 4.893-1.976a34 34 0 0 1 5.41-.611q2.353-.142 3.67-.424 1.364-.282 2.352-.753v4.423q-.988.612-2.352.894-1.318.235-3.199.376a74 74 0 0 0-4.752.47 10.6 10.6 0 0 0-3.717 1.224q-2.07 1.223-2.917 3.858-.8 2.634-1.035 6.21 1.082-3.105 3.293-4.658 2.259-1.552 5.505-1.552 2.447 0 4.422.847 2.024.846 3.435 2.4 1.411 1.551 2.164 3.81.8 2.211.8 4.987m-12.044 8.516q2.775 0 4.563-2.023 1.788-2.07 1.788-6.399 0-4.282-1.788-6.304-1.74-2.07-4.422-2.07t-4.564 2.07q-1.835 2.023-1.835 6.257 0 4.376 1.741 6.446 1.788 2.023 4.517 2.023M766.159 40.842q0-1.976.705-3.434a6.56 6.56 0 0 1 2.07-2.447q1.365-.988 3.247-1.458 1.929-.518 4.234-.518h8.892v23.76h-5.457V48.51h-3.717l-5.74 8.234h-5.928l6.822-9.457q-2.494-.753-3.811-2.305t-1.317-4.14m13.691 4.282V36.42h-3.012q-2.258 0-3.716 1.035-1.412.988-1.412 3.246 0 2.26 1.271 3.34 1.317 1.083 3.669 1.083zM742.731 48.323q.517-2.258.706-5.975.188-3.764.188-9.363h17.079v23.76h-5.505V36.608h-7.151a173 173 0 0 1-.33 7.904q-.187 3.481-.847 6.022-.94 3.482-2.822 5.081-1.882 1.553-5.364 1.177v-4.376q1.599.236 2.541-.753.987-.988 1.505-3.34M713.833 50.346q.941-2.493 1.223-6.775.283-4.281.424-10.586h17.643v20.137h3.576v11.103h-4.047l-.941-7.48h-16.937l-.941 7.48h-4.046V53.122h2.211q1.13-.894 1.835-2.776m4.329.988a30 30 0 0 1-.471.988 6 6 0 0 1-.423.8h10.35V36.608h-7.716q-.14 5.27-.517 8.845-.33 3.576-1.223 5.881"/></g><defs><clipPath id="a"><path fill="#fff" d="M0 0h1000v84.023H0z"/></clipPath></defs></svg>